<?xml version="1.0" encoding="UTF-8" standalone="no"?>
<!DOCTYPE svg PUBLIC "-//W3C//DTD SVG 1.1//EN" "http://www.w3.org/Graphics/SVG/1.1/DTD/svg11.dtd">
<svg width="100%" height="100%" viewBox="0 0 726 190" version="1.1" xmlns="http://www.w3.org/2000/svg" xml:space="preserve" style="fill-rule:evenodd;clip-rule:evenodd;stroke-linejoin:round;stroke-miterlimit:2;">
    <rect x="0" y="123.949" width="725" height="10" style="fill:#e6580e;"/>
    <path d="M88.233,154.398c4.832,-0 8.592,1.536 11.28,4.608c2.688,3.072 4.032,7.376 4.032,12.912c-0,3.616 -0.6,6.744 -1.8,9.384c-1.2,2.64 -2.952,4.664 -5.256,6.072c-2.304,1.408 -5.056,2.112 -8.256,2.112c-4.832,-0 -8.584,-1.536 -11.256,-4.608c-2.672,-3.072 -4.008,-7.392 -4.008,-12.96c-0,-3.616 0.6,-6.736 1.8,-9.36c1.2,-2.624 2.944,-4.64 5.232,-6.048c2.288,-1.408 5.032,-2.112 8.232,-2.112Zm-0,6.384c-2.08,-0 -3.608,0.864 -4.584,2.592c-0.976,1.728 -1.464,4.576 -1.464,8.544c-0,3.968 0.496,6.824 1.488,8.568c0.992,1.744 2.512,2.616 4.56,2.616c2.112,-0 3.648,-0.864 4.608,-2.592c0.96,-1.728 1.44,-4.592 1.44,-8.592c-0,-3.968 -0.48,-6.816 -1.44,-8.544c-0.96,-1.728 -2.496,-2.592 -4.608,-2.592Z" style="fill:#fff;fill-rule:nonzero;"/>
    <path d="M123.273,170.67l9.456,17.952l-9.648,-0l-5.184,-12.048l-4.944,12.048l-9.408,-0l9.12,-17.712l-8.448,-15.648l9.552,-0l4.224,10.128l4.608,-10.128l9.36,-0l-8.688,15.408Z" style="fill:#fff;fill-rule:nonzero;"/>
    <path d="M148.041,154.398c4.832,-0 8.592,1.536 11.28,4.608c2.688,3.072 4.032,7.376 4.032,12.912c-0,3.616 -0.6,6.744 -1.8,9.384c-1.2,2.64 -2.952,4.664 -5.256,6.072c-2.304,1.408 -5.056,2.112 -8.256,2.112c-4.832,-0 -8.584,-1.536 -11.256,-4.608c-2.672,-3.072 -4.008,-7.392 -4.008,-12.96c-0,-3.616 0.6,-6.736 1.8,-9.36c1.2,-2.624 2.944,-4.64 5.232,-6.048c2.288,-1.408 5.032,-2.112 8.232,-2.112Zm-0,6.384c-2.08,-0 -3.608,0.864 -4.584,2.592c-0.976,1.728 -1.464,4.576 -1.464,8.544c-0,3.968 0.496,6.824 1.488,8.568c0.992,1.744 2.512,2.616 4.56,2.616c2.112,-0 3.648,-0.864 4.608,-2.592c0.96,-1.728 1.44,-4.592 1.44,-8.592c-0,-3.968 -0.48,-6.816 -1.44,-8.544c-0.96,-1.728 -2.496,-2.592 -4.608,-2.592Z" style="fill:#fff;fill-rule:nonzero;"/>
    <path d="M189.273,155.262l-0.912,6.768l-7.872,-0l-0,26.592l-8.88,-0l-0,-26.592l-8.352,-0l-0,-6.768l26.016,-0Z" style="fill:#fff;fill-rule:nonzero;"/>
    <path d="M206.889,188.622l-1.488,-6.816l-8.832,-0l-1.488,6.816l-9.216,-0l9.888,-33.36l10.656,-0l9.888,33.36l-9.408,-0Zm-8.928,-13.152l6.048,-0l-3.024,-13.872l-3.024,13.872Z" style="fill:#fff;fill-rule:nonzero;"/>
    <path d="M281.025,155.262l-0.912,6.768l-7.872,-0l-0,26.592l-8.88,-0l-0,-26.592l-8.352,-0l-0,-6.768l26.016,-0Z" style="fill:#fff;fill-rule:nonzero;"/>
    <path d="M301.521,178.398c-1.024,2.72 -2.192,4.848 -3.504,6.384c-1.312,1.536 -2.872,2.656 -4.68,3.36c-1.808,0.704 -4.104,1.152 -6.888,1.344l-1.152,-5.856c2.08,-0.192 3.688,-0.56 4.824,-1.104c1.136,-0.544 2.088,-1.424 2.856,-2.64l-2.736,-0l-10.08,-24.624l9.12,-0l6.336,19.728l5.52,-19.728l9.024,-0l-8.64,23.136Z" style="fill:#fff;fill-rule:nonzero;"/>
    <path d="M323.169,155.262c4.48,-0 7.96,0.936 10.44,2.808c2.48,1.872 3.72,4.616 3.72,8.232c-0,3.776 -1.2,6.648 -3.6,8.616c-2.4,1.968 -5.632,2.952 -9.696,2.952l-3.408,-0l-0,10.752l-8.88,-0l-0,-33.36l11.424,-0Zm0.048,16.272c1.664,-0 2.92,-0.416 3.768,-1.248c0.848,-0.832 1.272,-2.144 1.272,-3.936c-0,-3.232 -1.744,-4.848 -5.232,-4.848l-2.4,-0l-0,10.032l2.592,-0Z" style="fill:#fff;fill-rule:nonzero;"/>
    <path d="M367.137,188.622l-8.688,-0l-0,-11.328c-0,-4.64 0.432,-9.12 1.296,-13.44l-8.352,24.768l-10.608,-0l-0,-33.36l8.688,-0l-0,11.664c-0,2.688 -0.112,4.96 -0.336,6.816c-0.224,1.856 -0.544,3.904 -0.96,6.144l8.592,-24.624l10.368,-0l-0,33.36Z" style="fill:#fff;fill-rule:nonzero;"/>
    <path d="M381.297,189.486c-2.624,-0 -4.896,-0.392 -6.816,-1.176c-1.92,-0.784 -3.6,-1.96 -5.04,-3.528l4.656,-4.56c1.056,0.992 2.096,1.72 3.12,2.184c1.024,0.464 2.16,0.696 3.408,0.696c1.6,-0 2.848,-0.376 3.744,-1.128c0.896,-0.752 1.344,-1.848 1.344,-3.288c-0,-1.44 -0.464,-2.552 -1.392,-3.336c-0.928,-0.784 -2.304,-1.176 -4.128,-1.176l-3.6,-0l1.008,-6.192l2.736,-0c1.472,-0 2.608,-0.328 3.408,-0.984c0.8,-0.656 1.2,-1.576 1.2,-2.76c-0,-1.056 -0.32,-1.912 -0.96,-2.568c-0.64,-0.656 -1.648,-0.984 -3.024,-0.984c-2.048,-0 -4.192,0.88 -6.432,2.64l-4.032,-4.416c3.168,-3.008 7.072,-4.512 11.712,-4.512c2.4,-0 4.488,0.376 6.264,1.128c1.776,0.752 3.144,1.8 4.104,3.144c0.96,1.344 1.44,2.864 1.44,4.56c-0,1.92 -0.64,3.56 -1.92,4.92c-1.28,1.36 -3.2,2.312 -5.76,2.856c2.784,0.288 4.92,1.128 6.408,2.52c1.488,1.392 2.232,3.288 2.232,5.688c-0,2.08 -0.576,3.896 -1.728,5.448c-1.152,1.552 -2.76,2.744 -4.824,3.576c-2.064,0.832 -4.44,1.248 -7.128,1.248Z" style="fill:#fff;fill-rule:nonzero;"/>
    <path d="M432.705,188.622l-8.736,-0l-0.432,-12.432l-0.048,-2.064c-0.064,-1.92 -0.096,-3.376 -0.096,-4.368c-0,-2.4 0.096,-4.8 0.288,-7.2l-4.56,22.608l-8.4,-0l-4.848,-22.608c0.288,3.744 0.432,7.04 0.432,9.888c-0,1.632 -0.016,2.88 -0.048,3.744l-0.384,12.432l-8.736,-0l2.448,-33.36l11.04,-0l4.464,22.128l4.032,-22.128l11.088,-0l2.496,33.36Z" style="fill:#fff;fill-rule:nonzero;"/>
    <path d="M482.908,155.262c4.48,-0 7.96,0.936 10.44,2.808c2.48,1.872 3.72,4.616 3.72,8.232c-0,3.776 -1.2,6.648 -3.6,8.616c-2.4,1.968 -5.632,2.952 -9.696,2.952l-3.408,-0l-0,10.752l-8.88,-0l-0,-33.36l11.424,-0Zm0.048,16.272c1.664,-0 2.92,-0.416 3.768,-1.248c0.848,-0.832 1.272,-2.144 1.272,-3.936c-0,-3.232 -1.744,-4.848 -5.232,-4.848l-2.4,-0l-0,10.032l2.592,-0Z" style="fill:#fff;fill-rule:nonzero;"/>
    <path d="M512.188,166.398c4.32,-0 7.64,0.904 9.96,2.712c2.32,1.808 3.48,4.504 3.48,8.088c-0,3.744 -1.192,6.584 -3.576,8.52c-2.384,1.936 -5.56,2.904 -9.528,2.904l-12,-0l-0,-33.36l8.88,-0l-0,11.136l2.784,-0Zm15.552,-11.136l8.88,-0l-0,33.36l-8.88,-0l-0,-33.36Zm-16.224,27.024c3.232,-0 4.848,-1.664 4.848,-4.992c-0,-1.6 -0.4,-2.808 -1.2,-3.624c-0.8,-0.816 -2.08,-1.224 -3.84,-1.224l-1.92,-0l-0,9.84l2.112,-0Z" style="fill:#fff;fill-rule:nonzero;"/>
    <path d="M553.996,166.974c4.288,-0 7.592,0.888 9.912,2.664c2.32,1.776 3.48,4.392 3.48,7.848c-0,3.616 -1.2,6.376 -3.6,8.28c-2.4,1.904 -5.568,2.856 -9.504,2.856l-12.48,-0l-0,-33.36l21.6,-0l-0.864,6.672l-11.856,-0l-0,5.04l3.312,-0Zm-0.72,15.312c1.6,-0 2.808,-0.4 3.624,-1.2c0.816,-0.8 1.224,-1.968 1.224,-3.504c-0,-3.04 -1.68,-4.56 -5.04,-4.56l-2.4,-0l-0,9.264l2.592,-0Z" style="fill:#fff;fill-rule:nonzero;"/>
    <path d="M587.692,188.622l-1.488,-6.816l-8.832,-0l-1.488,6.816l-9.216,-0l9.888,-33.36l10.656,-0l9.888,33.36l-9.408,-0Zm-8.928,-13.152l6.048,-0l-3.024,-13.872l-3.024,13.872Z" style="fill:#fff;fill-rule:nonzero;"/>
    <path d="M624.988,155.262l-0,33.36l-8.88,-0l-0,-26.688l-5.808,-0l-1.2,10.32c-0.416,3.776 -0.992,6.792 -1.728,9.048c-0.736,2.256 -1.816,4.056 -3.24,5.4c-1.424,1.344 -3.4,2.272 -5.928,2.784l-2.064,-6.096c1.12,-0.48 1.96,-1.128 2.52,-1.944c0.56,-0.816 0.984,-1.912 1.272,-3.288c0.288,-1.376 0.608,-3.536 0.96,-6.48l1.968,-16.416l22.128,-0Z" style="fill:#fff;fill-rule:nonzero;"/>
    <path d="M657.628,155.262l-7.92,14.976l8.784,18.384l-9.6,-0l-6.672,-14.16l-3.168,-0l-0,14.16l-8.88,-0l-0,-33.36l8.88,-0l-0,12.864l3.36,-0l6.576,-12.864l8.64,-0Z" style="fill:#fff;fill-rule:nonzero;"/>
    <path d="M678.124,188.622l-1.488,-6.816l-8.832,-0l-1.488,6.816l-9.216,-0l9.888,-33.36l10.656,-0l9.888,33.36l-9.408,-0Zm-8.928,-13.152l6.048,-0l-3.024,-13.872l-3.024,13.872Z" style="fill:#fff;fill-rule:nonzero;"/>
    <path d="M57.181,90.732l-4.048,-18.538l-24.021,-0l-4.047,18.538l-25.065,-0l26.893,-90.732l28.982,0l26.893,90.732l-25.587,-0Zm-24.283,-35.771l16.45,0l-8.225,-37.729l-8.225,37.729Z" style="fill:#fff;fill-rule:nonzero;"/>
    <path d="M162.795,72.455l-0,40.47l-16.319,-0l-2.48,-22.193l-46.737,-0l-2.48,22.193l-16.319,-0l0,-40.47l6.789,-0c2.436,-2.959 4.416,-7.442 5.94,-13.447c1.523,-6.005 3.154,-15.927 4.895,-29.765l3.656,-29.243l54.83,0l0,72.455l8.225,-0Zm-31.463,-54.961l-11.357,-0l-0.914,9.138c-1.393,13.664 -3.199,23.869 -5.418,30.614c-2.219,6.745 -5.374,11.814 -9.465,15.209l27.154,-0l0,-54.961Z" style="fill:#fff;fill-rule:nonzero;"/>
    <path d="M201.437,0c12.185,0 21.65,2.546 28.395,7.637c6.745,5.092 10.117,12.555 10.117,22.389c0,10.27 -3.263,18.081 -9.791,23.434c-6.527,5.352 -15.318,8.029 -26.371,8.029l-9.269,-0l0,29.243l-24.151,-0l-0,-90.732l31.07,0Zm0.131,44.256c4.526,0 7.942,-1.131 10.248,-3.394c2.306,-2.263 3.459,-5.831 3.459,-10.705c0,-8.79 -4.743,-13.186 -14.229,-13.186l-6.528,0l0,27.285l7.05,0Z" style="fill:#fff;fill-rule:nonzero;"/>
    <path d="M306.921,0l-2.48,17.102l-30.941,-0l0,19.321l27.024,0l0,16.58l-27.024,-0l0,20.627l33.029,-0l0,17.102l-57.18,-0l-0,-90.732l57.572,0Z" style="fill:#fff;fill-rule:nonzero;"/>
    <path d="M365.799,90.732l-0,-37.729l-24.021,-0l-0,37.729l-24.152,-0l-0,-90.732l24.152,0l-0,34.334l24.021,0l-0,-34.334l24.151,0l0,90.732l-24.151,-0Z" style="fill:#fff;fill-rule:nonzero;"/>
    <path d="M451.569,90.732l-4.047,-18.538l-24.021,-0l-4.047,18.538l-25.065,-0l26.893,-90.732l28.982,0l26.893,90.732l-25.588,-0Zm-24.282,-35.771l16.449,0l-8.224,-37.729l-8.225,37.729Z" style="fill:#fff;fill-rule:nonzero;"/>
    <path d="M553.006,0l0,90.732l-24.152,-0l0,-72.586l-15.796,0l-3.264,28.068c-1.131,10.27 -2.698,18.473 -4.7,24.609c-2.001,6.136 -4.939,11.031 -8.812,14.687c-3.873,3.655 -9.247,6.179 -16.122,7.572l-5.614,-16.58c3.046,-1.306 5.331,-3.068 6.854,-5.287c1.523,-2.22 2.676,-5.201 3.459,-8.943c0.784,-3.742 1.654,-9.617 2.611,-17.624l5.353,-44.648l60.183,-0Z" style="fill:#fff;fill-rule:nonzero;"/>
    <path d="M638.777,90.732l-23.63,-0l0,-30.81c0,-12.62 1.175,-24.804 3.525,-36.554l-22.715,67.364l-28.852,-0l0,-90.732l23.63,0l-0,31.723c-0,7.311 -0.305,13.491 -0.914,18.538c-0.609,5.048 -1.48,10.618 -2.611,16.711l23.368,-66.972l28.199,0l-0,90.732Z" style="fill:#fff;fill-rule:nonzero;"/>
    <path d="M701.049,90.732l-0,-37.729l-24.021,-0l-0,37.729l-24.152,-0l0,-90.732l24.152,0l-0,34.334l24.021,0l-0,-34.334l24.151,0l0,90.732l-24.151,-0Z" style="fill:#fff;fill-rule:nonzero;"/>
</svg>
